<svg width="17" height="17" viewBox="0 0 17 17" fill="none" xmlns="http://www.w3.org/2000/svg">
<path d="M0.708333 7.79167C0.708333 7.79167 3.67483 3.54167 8.5 3.54167C9.17079 3.54167 9.80263 3.62738 10.3969 3.76975L5.92167 8.245C5.75461 7.88046 5.66765 7.48433 5.66667 7.08333C5.66667 6.41962 5.90396 5.81754 6.28646 5.33446C4.59212 5.90963 3.30154 7.02383 2.56488 7.79167C3.19242 8.44638 3.9019 9.0173 4.67571 9.49025L3.6465 10.5195C1.76871 9.30042 0.708333 7.79167 0.708333 7.79167ZM16.2917 7.79167C16.2917 7.79167 13.3252 12.0417 8.5 12.0417C7.82992 12.0417 7.1995 11.9538 6.6045 11.8129L3.54167 14.875L2.47917 13.8125L14.5208 1.77083L15.5833 2.83333L13.3542 5.06246C15.2299 6.28221 16.2917 7.79167 16.2917 7.79167ZM14.4394 7.79592C13.8107 7.13939 13.0995 6.56724 12.3236 6.09379L11.3333 7.08333C11.3333 7.83478 11.0348 8.55545 10.5035 9.0868C9.97212 9.61816 9.25145 9.91667 8.5 9.91667L7.82921 10.5875C8.04879 10.6094 8.27121 10.625 8.5 10.625C11.3178 10.625 13.418 8.86975 14.4394 7.79592Z" fill="#4394DD"/>
</svg>
