<svg width="17" height="17" viewBox="0 0 17 17" fill="none" xmlns="http://www.w3.org/2000/svg">
<path d="M0.708333 7.79168C0.708333 7.79168 3.67483 3.54168 8.5 3.54168C9.17079 3.54168 9.80263 3.62739 10.3969 3.76977L5.92167 8.24502C5.75461 7.88047 5.66765 7.48435 5.66667 7.08335C5.66667 6.41964 5.90396 5.81756 6.28646 5.33447C4.59212 5.90964 3.30154 7.02385 2.56488 7.79168C3.19242 8.4464 3.9019 9.01732 4.67571 9.49027L3.6465 10.5195C1.76871 9.30043 0.708333 7.79168 0.708333 7.79168ZM16.2917 7.79168C16.2917 7.79168 13.3252 12.0417 8.5 12.0417C7.82992 12.0417 7.1995 11.9538 6.6045 11.8129L3.54167 14.875L2.47917 13.8125L14.5208 1.77085L15.5833 2.83335L13.3542 5.06247C15.2299 6.28222 16.2917 7.79168 16.2917 7.79168ZM14.4394 7.79593C13.8107 7.13941 13.0995 6.56725 12.3236 6.09381L11.3333 7.08335C11.3333 7.8348 11.0348 8.55547 10.5035 9.08682C9.97212 9.61817 9.25145 9.91668 8.5 9.91668L7.82921 10.5875C8.04879 10.6094 8.27121 10.625 8.5 10.625C11.3178 10.625 13.418 8.86977 14.4394 7.79593Z" fill="#61B8B2"/>
</svg>
